<svg xmlns="http://www.w3.org/2000/svg" width="1072" height="420.764" viewBox="0 0 1072 420.764">
  <g id="Grupo_233" data-name="Grupo 233" transform="translate(2152 34) rotate(90)">
    <rect id="Rectángulo_163" data-name="Rectángulo 163" width="405.675" height="1070.032" transform="translate(-34 1080)" fill="#f1f1f1"/>
    <rect id="Rectángulo_164" data-name="Rectángulo 164" width="15.089" height="41.987" transform="translate(357.242 1080)" fill="#010101"/>
    <rect id="Rectángulo_169" data-name="Rectángulo 169" width="15.089" height="15.089" transform="translate(357.242 2121.822)" fill="#010101"/>
    <rect id="Rectángulo_170" data-name="Rectángulo 170" width="15.089" height="15.089" transform="translate(342.153 2136.911)" fill="#010101"/>
    <rect id="Rectángulo_167" data-name="Rectángulo 167" width="15.089" height="206.654" transform="translate(357.898 1605.102)" fill="#010101"/>
    <rect id="Rectángulo_165" data-name="Rectángulo 165" width="15.089" height="15.089" transform="translate(371.019 1106.898)" fill="#f1f1f1"/>
    <rect id="Rectángulo_168" data-name="Rectángulo 168" width="15.089" height="15.089" transform="translate(371.675 2121.822)" fill="#f1f1f1"/>
    <rect id="Rectángulo_166" data-name="Rectángulo 166" width="15.089" height="206.654" transform="translate(371.675 1605.102)" fill="#f1f1f1"/>
    <rect id="Rectángulo_186" data-name="Rectángulo 186" width="15.089" height="41.987" transform="translate(357.242 1080)" fill="#010101"/>
    <rect id="Rectángulo_187" data-name="Rectángulo 187" width="15.089" height="15.089" transform="translate(357.242 2121.822)" fill="#010101"/>
    <rect id="Rectángulo_188" data-name="Rectángulo 188" width="15.089" height="15.089" transform="translate(342.153 2136.911)" fill="#010101"/>
    <rect id="Rectángulo_189" data-name="Rectángulo 189" width="15.089" height="206.654" transform="translate(357.898 1605.102)" fill="#010101"/>
    <rect id="Rectángulo_190" data-name="Rectángulo 190" width="15.089" height="15.089" transform="translate(371.019 1106.898)" fill="#f1f1f1"/>
    <rect id="Rectángulo_191" data-name="Rectángulo 191" width="15.089" height="15.089" transform="translate(371.675 2121.822)" fill="#f1f1f1"/>
    <rect id="Rectángulo_192" data-name="Rectángulo 192" width="15.089" height="206.654" transform="translate(371.675 1605.102)" fill="#f1f1f1"/>
  </g>
</svg>
